{"accessors" : [{"bufferView" : 0, "byteOffset" : 0, "componentType" : 5123, "count" : 1716, "type" : "SCALAR", "max" : [1577], "min" : [0]}, {"bufferView" : 1, "byteOffset" : 0, "componentType" : 5126, "count" : 1578, "type" : "VEC3", "max" : [0.1474519968032837, 0.4669319987297058, 0.054999999701976776], "min" : [-0.28154799342155457, -0.45706799626350403, -0.054999999701976776], "name" : "POSITION"}, {"bufferView" : 1, "byteOffset" : 12, "componentType" : 5126, "count" : 1578, "type" : "VEC2", "max" : [1, -0], "min" : [0, -0], "name" : "TEXCOORD_0"}, {"bufferView" : 1, "byteOffset" : 20, "componentType" : 5126, "count" : 1578, "type" : "VEC3", "max" : [0.9997624158859253, 1.0000044107437134, 1.0000044107437134], "min" : [-0.9993342757225037, -1.0000044107437134, -1.0000044107437134], "name" : "NORMAL"}], "asset" : {"generator" : "Aspose.3D 23.9.0", "version" : "2.0"}, "buffers" : [{"uri" : "data:application/octet-stream;base64,", "byteLength" : 58352}], "bufferViews" : [{"buffer" : 0, "byteOffset" : 0, "byteLength" : 3432, "target" : 34963}, {"buffer" : 0, "byteOffset" : 3436, "byteLength" : 54912, "byteStride" : 32, "target" : 34962}], "meshes" : [{"primitives" : [{"attributes" : {"POSITION" : 1, "TEXCOORD_0" : 2, "NORMAL" : 3}, "indices" : 0, "mode" : 4}], "name" : ""}], "nodes" : [{"mesh" : 0, "name" : "Text"}], "scene" : 0, "scenes" : [{"nodes" : [0]}]}