{"accessors" : [{"bufferView" : 0, "byteOffset" : 0, "componentType" : 5123, "count" : 1776, "type" : "SCALAR", "max" : [1629], "min" : [0]}, {"bufferView" : 1, "byteOffset" : 0, "componentType" : 5126, "count" : 1630, "type" : "VEC3", "max" : [0.28314998745918274, 0.4147860109806061, 0.05000000074505806], "min" : [-0.5908499956130981, -0.27621400356292725, -0.05000000074505806], "name" : "POSITION"}, {"bufferView" : 1, "byteOffset" : 12, "componentType" : 5126, "count" : 1630, "type" : "VEC2", "max" : [1, -0], "min" : [0, -0], "name" : "TEXCOORD_0"}, {"bufferView" : 1, "byteOffset" : 20, "componentType" : 5126, "count" : 1630, "type" : "VEC3", "max" : [1.0000044107437134, 1.0000044107437134, 1.0000044107437134], "min" : [-1.0000044107437134, -1.0000044107437134, -1.0000044107437134], "name" : "NORMAL"}], "asset" : {"generator" : "Aspose.3D 23.9.0", "version" : "2.0"}, "buffers" : [{"uri" : "data:application/octet-stream;base64,", "byteLength" : 60392}], "bufferViews" : [{"buffer" : 0, "byteOffset" : 0, "byteLength" : 3552, "target" : 34963}, {"buffer" : 0, "byteOffset" : 3556, "byteLength" : 56832, "byteStride" : 32, "target" : 34962}], "meshes" : [{"primitives" : [{"attributes" : {"POSITION" : 1, "TEXCOORD_0" : 2, "NORMAL" : 3}, "indices" : 0, "mode" : 4}], "name" : ""}], "nodes" : [{"mesh" : 0, "name" : "Text"}], "scene" : 0, "scenes" : [{"nodes" : [0]}]}